<?xml version="1.0" encoding="UTF-8" standalone="no"?>
<svg
   xmlns:dc="http://purl.org/dc/elements/1.1/"
   xmlns:cc="http://creativecommons.org/ns#"
   xmlns:rdf="http://www.w3.org/1999/02/22-rdf-syntax-ns#"
   xmlns:svg="http://www.w3.org/2000/svg"
   xmlns="http://www.w3.org/2000/svg"
   xmlns:sodipodi="http://sodipodi.sourceforge.net/DTD/sodipodi-0.dtd"
   xmlns:inkscape="http://www.inkscape.org/namespaces/inkscape"
   width="1440"
   height="2095"
   viewBox="0 0 380.99999 554.3021"
   version="1.1"
   id="svg8"
   inkscape:version="1.0.2-2 (e86c870879, 2021-01-15)"
   sodipodi:docname="line-stroke-editable.svg">
  <defs
     id="defs2" />
  <sodipodi:namedview
     id="base"
     pagecolor="#ffffff"
     bordercolor="#666666"
     borderopacity="1.0"
     inkscape:pageopacity="0.0"
     inkscape:pageshadow="2"
     inkscape:zoom="0.98994949"
     inkscape:cx="928.11227"
     inkscape:cy="233.40183"
     inkscape:document-units="mm"
     inkscape:current-layer="layer1"
     inkscape:document-rotation="0"
     showgrid="false"
     units="px"
     inkscape:snap-intersection-paths="true"
     showguides="false"
     inkscape:window-width="1920"
     inkscape:window-height="991"
     inkscape:window-x="-9"
     inkscape:window-y="-9"
     inkscape:window-maximized="1" />
  <metadata
     id="metadata5">
    <rdf:RDF>
      <cc:Work
         rdf:about="">
        <dc:format>image/svg+xml</dc:format>
        <dc:type
           rdf:resource="http://purl.org/dc/dcmitype/StillImage" />
        <dc:title></dc:title>
      </cc:Work>
    </rdf:RDF>
  </metadata>
  <g
     inkscape:label="Layer 1"
     inkscape:groupmode="layer"
     id="layer1">
    <path
       style="fill:none;stroke:#000000;stroke-width:0.26499999;stroke-linecap:butt;stroke-linejoin:miter;stroke-opacity:1;stroke-miterlimit:4;stroke-dasharray:1.58999992,0.52999997;stroke-dashoffset:0"
       d="m 190.5,0.1322915 c 0,0 83.91072,15.7427085 133.0476,75.4629465 C 372.68451,135.31547 263.07142,128.5119 241.14881,114.90476 219.22619,101.29762 130.02381,43.089284 97.517856,127 c -32.505951,83.91071 63.500004,71.05952 86.178574,57.45238 22.67857,-13.60714 121.70832,-26.45833 152.70238,-11.33929 30.99403,15.11905 39.30952,40.82143 25.70237,86.17857 -13.60713,45.35715 -164.04166,27.21428 -128.5119,-19.65476 35.52978,-46.86904 74.08332,-27.97024 89.95832,-2.26785 15.875,25.70237 30.23812,37.79761 22.67858,102.05355 -7.55952,64.25597 -46.86903,3.77979 -156.48213,2.26788 -109.613099,-1.51191 -92.982145,99.7857 -81.64286,103.56546 11.33928,3.77978 113.39286,46.86905 85.42262,110.36905"
       id="path859" />
  </g>
</svg>
